<?xml version="1.0" encoding="utf-8"?>
<!-- Generator: Adobe Illustrator 17.0.0, SVG Export Plug-In . SVG Version: 6.00 Build 0)  -->
<!DOCTYPE svg PUBLIC "-//W3C//DTD SVG 1.1//EN" "http://www.w3.org/Graphics/SVG/1.1/DTD/svg11.dtd">
<svg version="1.1" id="Layer_1" xmlns="http://www.w3.org/2000/svg" xmlns:xlink="http://www.w3.org/1999/xlink" x="0px" y="0px"
	 width="16px" height="16px" viewBox="0 0 16 16" enable-background="new 0 0 16 16" xml:space="preserve">
<path fill="#FF0015" d="M9.188-0.438c-3.313,0-6,2.687-6,6c0,3.854,4.321,8.663,5,9.398c0.281,0.305,0.516,0.602,1,0.602
	s0.719-0.297,1-0.602c0.679-0.735,5-5.544,5-9.398C15.188,2.25,12.5-0.438,9.188-0.438z M9.188,9.562c-2.209,0-4-1.791-4-4
	s1.791-4,4-4s4,1.791,4,4S11.396,9.562,9.188,9.562z"/>
</svg>
