<?xml version="1.0" encoding="utf-8"?>
<!-- Generator: Adobe Illustrator 17.0.0, SVG Export Plug-In . SVG Version: 6.00 Build 0)  -->
<!DOCTYPE svg PUBLIC "-//W3C//DTD SVG 1.1//EN" "http://www.w3.org/Graphics/SVG/1.1/DTD/svg11.dtd">
<svg version="1.1" id="Layer_1" xmlns="http://www.w3.org/2000/svg" xmlns:xlink="http://www.w3.org/1999/xlink" x="0px" y="0px"
	 width="16px" height="16px" viewBox="0 0 16 16" enable-background="new 0 0 16 16" xml:space="preserve">
<path d="M8,0C4.687,0,2,2.687,2,6c0,3.854,4.321,8.663,5,9.398C7.281,15.703,7.516,16,8,16s0.719-0.297,1-0.602
	C9.679,14.663,14,9.854,14,6C14,2.687,11.313,0,8,0z M8,10c-2.209,0-4-1.791-4-4s1.791-4,4-4s4,1.791,4,4S10.209,10,8,10z"/>
</svg>
